<?xml version="1.0" encoding="UTF-8" standalone="no"?>
<!-- Created with Inkscape (http://www.inkscape.org/) -->

<svg
   width="78.785477mm"
   height="70.477722mm"
   viewBox="0 0 78.785477 70.477722"
   version="1.1"
   id="svg4184"
   inkscape:version="1.1.2 (b8e25be833, 2022-02-05)"
   sodipodi:docname="Calcflower_icon.svg"
   xmlns:inkscape="http://www.inkscape.org/namespaces/inkscape"
   xmlns:sodipodi="http://sodipodi.sourceforge.net/DTD/sodipodi-0.dtd"
   xmlns="http://www.w3.org/2000/svg"
   xmlns:svg="http://www.w3.org/2000/svg">
  <sodipodi:namedview
     id="namedview4186"
     pagecolor="#ffffff"
     bordercolor="#666666"
     borderopacity="1.0"
     inkscape:pageshadow="2"
     inkscape:pageopacity="0.0"
     inkscape:pagecheckerboard="0"
     inkscape:document-units="mm"
     showgrid="false"
     inkscape:zoom="0.74029882"
     inkscape:cx="130.35277"
     inkscape:cy="221.53216"
     inkscape:window-width="1920"
     inkscape:window-height="1017"
     inkscape:window-x="-8"
     inkscape:window-y="-8"
     inkscape:window-maximized="1"
     inkscape:current-layer="layer1" />
  <defs
     id="defs4181">
    <clipPath
       clipPathUnits="userSpaceOnUse"
       id="clipPath1983">
      <path
         d="m 633.972,341.705 h 21.055 V 321.84 h -21.055 z"
         id="path1981" />
    </clipPath>
    <clipPath
       clipPathUnits="userSpaceOnUse"
       id="clipPath1999">
      <path
         d="m 669.111,334.156 h 11.897 v -8.181 h -11.897 z"
         id="path1997" />
    </clipPath>
    <clipPath
       clipPathUnits="userSpaceOnUse"
       id="clipPath2015">
      <path
         d="m 663.495,369.55 h 12.049 v -19.414 h -12.049 z"
         id="path2013" />
    </clipPath>
    <clipPath
       clipPathUnits="userSpaceOnUse"
       id="clipPath2031">
      <path
         d="m 696.366,367.962 h 20.122 v -31.248 h -20.122 z"
         id="path2029" />
    </clipPath>
    <clipPath
       clipPathUnits="userSpaceOnUse"
       id="clipPath2047">
      <path
         d="m 661.292,374.295 h 36.893 v -9.566 h -36.893 z"
         id="path2045" />
    </clipPath>
    <clipPath
       clipPathUnits="userSpaceOnUse"
       id="clipPath2063">
      <path
         d="m 645.854,377.78 h 20.642 v -23.262 h -20.642 z"
         id="path2061" />
    </clipPath>
    <clipPath
       clipPathUnits="userSpaceOnUse"
       id="clipPath2079">
      <path
         d="m 663.939,368.371 h 6.001 v -6.629 h -6.001 z"
         id="path2077" />
    </clipPath>
    <clipPath
       clipPathUnits="userSpaceOnUse"
       id="clipPath2095">
      <path
         d="m 644.533,338.973 h 77.25 v -117.32 h -77.25 z"
         id="path2093" />
    </clipPath>
    <clipPath
       clipPathUnits="userSpaceOnUse"
       id="clipPath2111">
      <path
         d="m 699.585,370.261 h 47.024 V 229.937 h -47.024 z"
         id="path2109" />
    </clipPath>
    <clipPath
       clipPathUnits="userSpaceOnUse"
       id="clipPath2127">
      <path
         d="m 609.973,240.146 h 17.182 v -15.32 h -17.182 z"
         id="path2125" />
    </clipPath>
    <clipPath
       clipPathUnits="userSpaceOnUse"
       id="clipPath2143">
      <path
         d="m 536.924,251.307 h 84.701 v -34.789 h -84.701 z"
         id="path2141" />
    </clipPath>
    <clipPath
       clipPathUnits="userSpaceOnUse"
       id="clipPath2159">
      <path
         d="m 572.144,381.699 h 19.419 v -26.196 h -19.419 z"
         id="path2157" />
    </clipPath>
    <clipPath
       clipPathUnits="userSpaceOnUse"
       id="clipPath2175">
      <path
         d="m 614.093,248.285 h 10.259 v -4.383 h -10.259 z"
         id="path2173" />
    </clipPath>
  </defs>
  <g
     inkscape:label="Layer 1"
     inkscape:groupmode="layer"
     id="layer1"
     transform="translate(-70.329283,-90.208787)">
    <g
       id="g3898"
       style="display:inline"
       transform="matrix(0.35277777,0,0,-0.35277777,-114.70765,225.34094)">
      <g
         id="g1865"
         transform="translate(579.29,234.6201)">
        <path
           d="m 0,0 c -1.39,-1.48 -3.49,-1.48 -5.5,-0.79 h -0.01 c -0.66,0.229 -1.3,0.54 -1.91,0.89 -1.68,0.96 -3.08,2.27 -3.63,3.379 -4.32,4.321 -7.21,11.531 -8.65,17.291 -0.73,2.93 0.03,5.87 1.52,8.61 0.27,0.51 0.58,1.01 0.9,1.5 -2.58,0.14 -3.94,1.58 -5.3,4.309 -1.37,1.371 -3.06,4.031 -4,6.921 -1.04,3.2 -1.15,6.66 1.12,8.93 -1.36,5.439 -4.01,9.6 0.54,13.68 l -0.54,0.74 c -1.44,1.439 -2.89,4.32 -2.89,5.76 -2.88,2.88 -4.32,7.21 -4.32,11.53 0,8.3 3.98,16.6 11.94,18.52 l -0.41,1.66 c 0.6,0.6 1.21,1.46 1.81,2.36 0.61,0.48 1.21,1.41 1.8,2.59 0.24,0.309 0.47,0.58 0.71,0.82 4.33,7.199 10.09,11.529 18.74,11.529 3.82,1.271 6.51,0.301 10.05,0.061 -1.32,1.8 -1.53,3.88 -1.02,5.97 1.13,4.6 5.76,9.28 9.71,11.26 5.76,4.33 14.41,4.33 21.62,2.879 2.88,0 4.32,-1.439 7.21,-1.439 l 0.29,-0.1 c 0.99,2.369 4.25,4.43 5.47,4.43 7.21,2.88 15.86,-1.44 21.62,-5.77 2.7,-1.621 4.8,-3.65 6.51,-5.93 l 0.7,0.17 c 0,4.32 7.21,7.2 11.53,7.2 5.76,0 11.53,-2.88 17.29,-4.32 4.329,0 7.21,0 11.54,-2.88 4.32,-1.44 7.2,-4.33 8.64,-8.65 1.34,-1.79 2.27,-3.711 2.91,-5.74 1.42,-4.49 1.42,-9.46 1.42,-14.44 l 0.74,-1.18 c -2.9,-1.62 -5.83,-3.9 -6.51,-4.58 -5.51,-5.51 -10.15,-11.441 -14.4,-17.81 -3.55,-5.29 -6.82,-10.89 -10.1,-16.79 -0.75,-1.26 -1.51,-2.56 -2.27,-3.89 C 102.01,53.689 99.03,48.29 95.55,43.3 94.65,42 93.71,40.74 92.729,39.51 89.18,34.79 86.61,29.1 82.62,24.03 81.74,22.91 80.79,21.82 79.75,20.77 73.99,13.57 68.22,6.36 59.58,4.92 57.27,3.77 51.27,1.689 48.229,2.39 47.65,3.189 47.11,4.03 46.6,4.92 46.06,4.92 45.47,4.77 44.85,4.5 L 41.72,4.67 C 38.86,3.47 34.8,3.39 30.75,2.04 27.87,0.59 24.979,0.59 22.1,-0.851 20.66,-2.29 17.78,-3.73 16.33,-3.73 12.01,-5.17 9.13,-5.17 4.8,-3.73 2.24,-2.88 1.2,-2.021 0.479,-0.87 0.3,-0.601 0.15,-0.311 0,0"
           style="fill:#ffffd9;fill-opacity:1;fill-rule:nonzero;stroke:none"
           id="path1867" />
      </g>
      <g
         id="g1869"
         transform="translate(625.8896,239.54)">
        <path
           d="M 0,0 C 0.511,-0.89 1.051,-1.73 1.63,-2.53 5.48,-7.92 10.761,-11.38 16.88,-13.49 13.12,-17.85 5.101,-19.4 0,-16 c -0.37,-1.12 -2.88,-1.3 -2.88,-1.3 -4.319,0 -12.97,0 -11.529,5.77 l -0.74,1.16 c 1.629,1.05 3.299,2.11 5.059,3.16 2.351,2.34 5.641,5.64 8.34,6.79 C -1.13,-0.15 -0.54,0 0,0"
           style="fill:#347912;fill-opacity:1;fill-rule:nonzero;stroke:none"
           id="path1871" />
      </g>
      <g
         id="g1873"
         transform="translate(579.7695,233.75)">
        <path
           d="m 0,0 c 0.721,-1.15 1.761,-2.01 4.32,-2.86 4.33,-1.44 7.21,-1.44 11.531,0 1.45,0 4.33,1.44 5.769,2.88 2.88,1.44 5.771,1.44 8.651,2.89 4.049,1.35 8.11,1.43 10.969,2.63 L 44.37,5.37 C 41.671,4.22 38.381,0.92 36.03,-1.42 34.271,-2.47 32.601,-3.53 30.971,-4.58 25.931,-7.85 21.301,-11.12 15.851,-14.39 9.53,-17.55 3.021,-18.4 -3.27,-17.64 l 0.39,3.25 1.441,2.88 C 0,-7.19 0,-2.88 0,0"
           style="fill:#347912;fill-opacity:1;fill-rule:nonzero;stroke:none"
           id="path1875" />
      </g>
      <g
         id="g1877"
         transform="translate(561.7598,342.5)">
        <path
           d="m 0,0 c 2.08,4.21 3.96,11.63 5.04,13.79 2.88,4.32 2.88,8.65 4.32,14.41 0,2.88 -1.44,8.65 0,11.53 0.861,-0.86 1.6,-1.72 2.241,-2.58 C 10.55,33.59 15.13,26.45 15.13,23.88 16.57,19.55 18.01,16.67 19.45,12.35 10.8,12.35 5.04,8.02 0.71,0.82 0.471,0.58 0.24,0.31 0,0"
           style="fill:#347912;fill-opacity:1;fill-rule:nonzero;stroke:none"
           id="path1879" />
      </g>
      <g
         id="g1881"
         transform="translate(526.4697,295.46)">
        <path
           d="M 0,0 C 0.2,-0.9 1.21,-2.2 2.29,-3.39 L 2.3,-3.4 c 0.65,-2.13 0.93,-4.27 2,-6.4 2.881,-8.65 4.32,-15.85 8.64,-23.06 0.871,-1.45 1.8,-2.85 2.781,-4.19 -0.66,-0.36 -1.561,-0.44 -2.781,-0.13 -2.36,1.18 -5.69,3.33 -8.4,4.86 -0.63,2.62 -1.18,5.32 -1.689,8.11 -1.33,8 -1.431,15.981 -3.721,23.981 z"
           style="fill:#347912;fill-opacity:1;fill-rule:nonzero;stroke:none"
           id="path1883" />
      </g>
      <g
         id="g1885"
         transform="translate(539.4102,262.5996)">
        <path
           d="m 0,0 c -4.32,7.21 -5.76,14.41 -8.641,23.061 -1.069,2.129 -1.349,4.269 -2,6.399 0.711,-0.79 1.451,-1.529 2,-2.069 C -5.76,23.061 -1.44,18.74 2.89,14.41 3.53,13.771 4.229,13.101 4.99,12.41 4.33,10.131 4.33,7.66 4.33,4.32 4.33,2.051 5.22,-2.899 2.78,-4.189 1.8,-2.85 0.87,-1.449 0,0"
           style="fill:#347912;fill-opacity:1;fill-rule:nonzero;stroke:none"
           id="path1887" />
      </g>
      <g
         id="g1889"
         transform="translate(563.9199,228.0098)">
        <path
           d="M 0,0 C 2.05,2.05 4.83,4.101 7.3,6.16 8.11,5.99 8.96,5.88 9.86,5.82 h 0.01 c 2.01,-0.69 4.11,-0.69 5.5,0.79 0.151,-0.31 0.3,-0.6 0.48,-0.87 0,-2.88 0,-7.19 -1.44,-11.51 l -1.44,-2.879 -0.39,-3.25 C 5.55,-11.06 -1.189,-8.2 -7.05,-4.319 -4.22,-4.22 -1.42,-1.41 0,0"
           style="fill:#347912;fill-opacity:1;fill-rule:nonzero;stroke:none"
           id="path1891" />
      </g>
      <g
         id="g1893"
         transform="translate(559.5898,255.3896)">
        <path
           d="m 0,0 c 1.44,-5.76 4.33,-12.97 8.65,-17.29 0.55,-1.109 1.951,-2.42 3.63,-3.38 -0.21,-0.189 -0.429,-0.38 -0.65,-0.55 -5.26,1.031 -8.96,4.021 -13.75,7.91 -0.7,0.571 -1.44,1.17 -2.2,1.781 -4.61,4.609 -9.21,9.21 -13.079,14.55 2.439,1.29 1.549,6.24 1.549,8.509 0,3.34 0,5.811 0.661,8.09 C -12.2,16.9 -8.37,13.9 -4.27,11.49 -2.399,10.391 -0.479,9.42 1.44,8.65 L 1.521,8.61 C 0.03,5.87 -0.729,2.931 0,0"
           style="fill:#347912;fill-opacity:1;fill-rule:nonzero;stroke:none"
           id="path1895" />
      </g>
      <g
         id="g1897"
         transform="translate(557.4697,242.0801)">
        <path
           d="m 0,0 c 4.79,-3.89 8.49,-6.88 13.75,-7.91 -2.47,-2.06 -5.25,-4.111 -7.3,-6.16 -1.42,-1.41 -4.22,-4.22 -7.05,-4.32 -3.24,2.14 -6.21,4.6 -8.81,7.2 -4.9,4.9 -8.5,10.06 -11.23,15.59 1.67,-1.35 5.56,-2.62 6.911,-2.62 4.319,0 7.2,-1.44 10.089,-1.44 0.89,0 2.33,0 3.64,-0.34"
           style="fill:#347912;fill-opacity:1;fill-rule:nonzero;stroke:none"
           id="path1899" />
      </g>
      <g
         id="g1901"
         transform="translate(555.2695,243.8604)">
        <path
           d="m 0,0 c 0.761,-0.61 1.5,-1.21 2.2,-1.78 -1.309,0.34 -2.75,0.34 -3.639,0.34 -2.89,0 -5.771,1.44 -10.09,1.44 -1.351,0 -5.241,1.27 -6.91,2.62 0,0 -0.01,0 -0.01,0.01 -2.571,5.189 -4.391,10.71 -5.811,16.649 2.71,-1.529 6.04,-3.679 8.401,-4.859 1.219,-0.311 2.12,-0.231 2.78,0.13 C -9.21,9.21 -4.609,4.609 0,0"
           style="fill:#347912;fill-opacity:1;fill-rule:nonzero;stroke:none"
           id="path1903" />
      </g>
      <g
         id="g1905"
         transform="translate(581.21,354.8496)">
        <path
           d="m 0,0 c -1.44,4.32 -2.88,7.2 -4.32,11.53 0,2.571 -4.58,9.71 -3.53,13.271 1.51,-2.021 2.52,-4.04 3.53,-6.071 C -1.44,17.29 0,15.851 1.44,14.41 3.8,12.061 7.11,8.74 9.03,6.03 8.521,3.94 8.73,1.86 10.05,0.061 6.51,0.301 3.82,1.271 0,0"
           style="fill:#347912;fill-opacity:1;fill-rule:nonzero;stroke:none"
           id="path1907" />
      </g>
      <g
         id="g1909"
         transform="translate(742.6396,282.7803)">
        <path
           d="m 0,0 c -1.34,-8.08 -1.43,-16.15 -4.96,-24.23 -0.43,0.64 -0.87,1.27 -1.33,1.89 -4.119,5.56 -9.38,10.27 -15.33,12.25 h -0.039 c 0.029,0.96 0.039,1.92 0.039,2.88 0,0.489 0,0.98 0.02,1.47 1.46,2.87 7.201,4.3 10.071,4.3 1.439,1.44 7.21,2.879 8.649,2.879 l 2.851,0.09 C -0.01,1.029 0,0.52 0,0"
           style="fill:#347912;fill-opacity:1;fill-rule:nonzero;stroke:none"
           id="path1911" />
      </g>
      <g
         id="g1913"
         transform="translate(721.04,277.04)">
        <path
           d="m 0,0 c 0.06,5.5 0.51,10.61 0.6,15.8 0.05,2.45 0.01,4.92 -0.18,7.46 5.69,2.88 12.68,7.02 18.3,8.42 l 1.259,0.07 c 0.111,-1.95 0.181,-3.89 0.181,-5.83 0,-6.691 1.24,-12.14 1.41,-18.65 L 18.72,7.18 C 17.28,7.18 11.51,5.74 10.07,4.3 7.2,4.3 1.46,2.87 0,0"
           style="fill:#347912;fill-opacity:1;fill-rule:nonzero;stroke:none"
           id="path1915" />
      </g>
      <g
         id="g1917"
         transform="translate(733.9902,328.9004)">
        <path
           d="M 0,0 C 1.439,0 4.33,1.439 5.77,2.89 H 5.79 C 5.779,2.409 5.77,1.92 5.77,1.439 c 0,-7.83 0.87,-14.78 1.259,-21.549 L 5.77,-20.181 c -5.621,-1.399 -12.61,-5.54 -18.3,-8.42 -0.1,1.34 -0.241,2.71 -0.441,4.101 0,1.97 -0.3,9.659 -0.079,17.43 C -8.931,-6.341 -3.88,-2.591 0,0"
           style="fill:#347912;fill-opacity:1;fill-rule:nonzero;stroke:none"
           id="path1919" />
      </g>
      <g
         id="g1921"
         transform="translate(733.9902,258.2803)">
        <path
           d="m 0,0 c -2.88,-1.45 -12.971,-5.771 -15.851,-2.891 l -0.279,0.111 c 1.22,3.219 1.989,6.44 2.47,9.67 0.38,2.5 0.57,5.009 0.65,7.52 h 0.039 C -7.021,12.43 -1.76,7.72 2.359,2.16 Z"
           style="fill:#347912;fill-opacity:1;fill-rule:nonzero;stroke:none"
           id="path1923" />
      </g>
      <g
         id="g1925"
         transform="translate(709.4902,314.4902)">
        <path
           d="m 0,0 c 2.88,7.21 4.319,12.97 8.649,18.74 1.441,1.44 2.88,2.88 4.321,4.32 l 0.349,-0.081 C 12.12,19.49 11.63,13.39 11.45,7.34 c -0.221,-7.771 0.079,-15.46 0.079,-17.43 0.2,-1.39 0.341,-2.761 0.441,-4.1 0.19,-2.54 0.23,-5.01 0.179,-7.46 l -2.059,0.03 c -2.88,0 -7.21,-1.441 -11.53,-1.441 -1.07,0 -3.741,0.801 -5.63,1.79 C -4.23,-14.181 -1.42,-7.09 0,0"
           style="fill:#347912;fill-opacity:1;fill-rule:nonzero;stroke:none"
           id="path1927" />
      </g>
      <g
         id="g1929"
         transform="translate(718.5498,336.9502)">
        <path
           d="m 0,0 c 2.61,5.479 4.05,10.899 6.8,15.01 4.32,4.33 8.64,7.21 11.53,10.09 2.88,2.89 5.76,4.33 7.2,7.21 l -0.179,0.58 c 1.049,0.32 2.08,0.61 3.069,0.86 0,-1.44 -1.45,-4.32 -2.89,-5.76 C 24.09,23.66 22.65,20.78 22.65,15.01 22.65,8.29 21.4,1.569 21.23,-5.16 H 21.21 C 19.771,-6.61 16.88,-8.05 15.44,-8.05 11.561,-10.641 6.51,-14.391 2.391,-15.12 2.57,-9.07 3.061,-2.97 4.26,0.52 4.311,0.68 4.36,0.83 4.42,0.97 3.44,1.39 1.78,0.88 0,0"
           style="fill:#347912;fill-opacity:1;fill-rule:nonzero;stroke:none"
           id="path1931" />
      </g>
      <g
         id="g1933"
         transform="translate(721.0195,238.0996)">
        <path
           d="m 0,0 c -4.21,0 -8.43,1.37 -11.31,4.11 0.97,1.05 1.861,2.08 2.661,3.09 2.429,3.401 4.2,6.8 5.49,10.2 L -2.88,17.29 C 0,14.41 10.091,18.73 12.971,20.181 l 2.359,2.16 c 0.46,-0.62 0.9,-1.25 1.33,-1.891 -0.25,-0.569 -0.51,-1.149 -0.8,-1.72 C 11.07,11.561 6.29,5.381 0.681,-0.63 Z"
           style="fill:#347912;fill-opacity:1;fill-rule:nonzero;stroke:none"
           id="path1935" />
      </g>
      <g
         id="g1937"
         transform="translate(715.2803,351.9902)">
        <path
           d="m 0,0 c 2.89,4.319 8.63,8.63 14.39,11.5 3.58,2.399 9.15,4.779 14.23,6.35 L 28.8,17.27 C 27.359,14.39 24.479,12.95 21.6,10.06 18.71,7.18 14.39,4.3 10.069,-0.03 7.319,-4.141 5.88,-9.561 3.27,-15.04 2.899,-15.221 2.529,-15.41 2.16,-15.62 l -0.74,1.18 c 0,4.98 0,9.95 -1.42,14.44"
           style="fill:#347912;fill-opacity:1;fill-rule:nonzero;stroke:none"
           id="path1939" />
      </g>
      <g
         id="g1941"
         transform="translate(703.7305,264.04)">
        <path
           d="M 0,0 C 2.88,0 11.529,-2.88 14.409,1.44 L 16.6,1.13 c -0.481,-3.23 -1.25,-6.45 -2.47,-9.67 -1.29,-3.4 -3.061,-6.8 -5.49,-10.2 -0.8,-1.01 -1.691,-2.04 -2.661,-3.09 -1.19,-1.29 -2.49,-2.61 -3.879,-3.91 L 0,-23.06 c -7.82,0 -18,0 -23.07,7.46 5.349,6.11 9.139,13.62 12.729,20.84 C -7.771,2.39 -2.4,1.2 0,0"
           style="fill:#347912;fill-opacity:1;fill-rule:nonzero;stroke:none"
           id="path1943" />
      </g>
      <g
         id="g1945"
         transform="translate(702.4199,293.2197)">
        <path
           d="m 0,0 c 1.89,-0.989 4.561,-1.79 5.63,-1.79 4.32,0 8.65,1.44 11.53,1.44 l 2.06,-0.03 c -0.09,-5.189 -0.54,-10.3 -0.6,-15.8 -0.02,-0.49 -0.02,-0.98 -0.02,-1.469 0,-0.96 -0.01,-1.92 -0.039,-2.88 C 18.48,-23.04 18.29,-25.55 17.91,-28.05 l -2.19,0.311 C 12.84,-32.06 4.19,-29.18 1.311,-29.18 c -2.401,1.201 -7.771,2.39 -10.341,5.241 0.57,1.149 1.13,2.29 1.69,3.41 2.88,7.21 4.32,12.969 7.2,20.179 0.05,0.121 0.09,0.23 0.14,0.35"
           style="fill:#347912;fill-opacity:1;fill-rule:nonzero;stroke:none"
           id="path1947" />
      </g>
      <g
         id="g1949"
         transform="translate(709.71,242.21)">
        <path
           d="m 0,0 c 2.88,-2.74 7.1,-4.11 11.31,-4.11 l 0.68,-0.63 c -1.15,-1.239 -2.33,-2.47 -3.56,-3.7 -5.23,-3.92 -14.01,-6.65 -19.89,-1.76 2.71,1.98 5.27,4.12 7.58,6.29 1.39,1.3 2.69,2.62 3.88,3.91"
           style="fill:#347912;fill-opacity:1;fill-rule:nonzero;stroke:none"
           id="path1951" />
      </g>
      <g
         id="g1953"
         transform="translate(689.3096,279.9004)">
        <path
           d="m 0,0 c -2.659,3.989 -2.859,9.22 -5.149,13.399 0.759,1.33 1.519,2.63 2.269,3.891 C 0.4,23.189 3.671,28.79 7.221,34.08 7.28,27.04 8.721,20.04 11.53,14.409 11.9,14.04 12.46,13.67 13.11,13.319 13.061,13.199 13.021,13.09 12.971,12.97 10.091,5.76 8.65,0 5.771,-7.21 5.21,-8.33 4.65,-9.471 4.08,-10.62 3.54,-10.04 3.131,-9.391 2.881,-8.65 L 2.7,-8.69 C 2.07,-5.931 0,-2.45 0,0"
           style="fill:#347912;fill-opacity:1;fill-rule:nonzero;stroke:none"
           id="path1955" />
      </g>
      <g
         id="g1957"
         transform="translate(710.9297,331.79)">
        <path
           d="M 0,0 C 0.681,0.68 3.61,2.96 6.511,4.58 6.88,4.79 7.25,4.979 7.62,5.16 9.4,6.04 11.061,6.55 12.04,6.13 11.98,5.99 11.931,5.84 11.88,5.68 L 11.53,5.76 C 10.09,4.32 8.65,2.88 7.21,1.44 2.88,-4.33 1.44,-10.09 -1.439,-17.3 c -1.42,-7.09 -4.231,-14.18 -7.071,-21.27 -0.65,0.35 -1.21,0.72 -1.58,1.09 -2.809,5.63 -4.25,12.63 -4.309,19.67 C -10.149,-11.44 -5.51,-5.51 0,0"
           style="fill:#347912;fill-opacity:1;fill-rule:nonzero;stroke:none"
           id="path1959" />
      </g>
      <g
         id="g1961"
         transform="translate(680.6602,248.4404)">
        <path
           d="m 0,0 c -2.5,-2.851 -5.33,-5.391 -8.641,-7.46 -2.079,-1.04 -3.979,-2.08 -5.889,-3.12 -1.04,1.019 -1.97,2.069 -2.76,3.12 -2.7,5.42 -1.601,12.1 -1.46,17.67 3.99,5.069 6.56,10.76 10.109,15.479 0.981,1.231 1.921,2.491 2.821,3.79 1.549,-3.089 1.78,-7.509 2.94,-11 V 9.84 c 0,-2.41 1,-4.82 1.34,-7.221 l 0.1,0.011 C -1.03,1.659 -0.55,0.79 0,0"
           style="fill:#347912;fill-opacity:1;fill-rule:nonzero;stroke:none"
           id="path1963" />
      </g>
      <g
         id="g1965"
         transform="translate(642.7695,226.0498)">
        <path
           d="m 0,0 c -6.119,2.11 -11.399,5.57 -15.25,10.96 3.04,-0.7 9.04,1.38 11.351,2.53 8.639,1.441 14.41,8.651 20.17,15.85 1.04,1.051 1.99,2.14 2.87,3.261 C 19,27.03 17.9,20.351 20.601,14.931 21.391,13.88 22.32,12.83 23.36,11.811 L 29.61,6.82 C 33.211,4.48 37.171,2.681 40.78,1.96 l 0.641,-3.47 C 31.881,-3.8 21.2,-3.7 10.511,-2.37 6.83,-1.91 3.29,-1.149 0,0"
           style="fill:#347912;fill-opacity:1;fill-rule:nonzero;stroke:none"
           id="path1967" />
      </g>
      <g
         id="g1969"
         transform="translate(705.8301,238.2998)">
        <path
           d="m 0,0 c -2.311,-2.17 -4.87,-4.31 -7.58,-6.29 -3.75,-2.74 -7.78,-5.149 -11.82,-6.88 -0.74,-0.21 -1.49,-0.41 -2.24,-0.59 l -0.64,3.47 c -3.61,0.721 -7.57,2.52 -11.17,4.86 l -6.25,4.991 c 1.91,1.04 3.81,2.08 5.889,3.12 3.311,2.069 6.141,4.609 8.641,7.46 5.07,-7.46 15.25,-7.46 23.07,-7.46 z"
           style="fill:#347912;fill-opacity:1;fill-rule:nonzero;stroke:none"
           id="path1971" />
      </g>
      <g
         id="g1973"
         transform="translate(693.3896,269.2803)">
        <path
           d="m 0,0 c -3.59,-7.221 -7.38,-14.73 -12.729,-20.84 -0.55,0.79 -1.031,1.659 -1.441,2.63 l -0.1,-0.011 c -0.339,2.401 -1.339,4.811 -1.339,7.221 v 8.64 c -1.161,3.49 -1.391,7.91 -2.941,11 3.481,4.99 6.46,10.389 9.321,15.38 2.29,-4.18 2.49,-9.411 5.149,-13.4 0,-2.45 2.07,-5.931 2.7,-8.69 l 0.181,0.04 C -0.949,1.229 -0.54,0.58 0,0"
           style="fill:#347912;fill-opacity:1;fill-rule:nonzero;stroke:none"
           id="path1975" />
      </g>
      <g
         id="g1977">
        <g
           id="g1979" />
        <g
           id="g1991">
          <g
             clip-path="url(#clipPath1983)"
             opacity="0.399994"
             id="g1989">
            <g
               transform="translate(634.4502,339.793)"
               id="g1987">
              <path
                 d="m 0,0 c 2.575,-1.29 3.988,-4.828 3.986,-7.635 -0.002,-2.016 3.058,-3.009 3.682,-0.815 -0.304,-1.069 3.216,-2.793 4.101,-3.381 1.807,-1.202 3.603,-2.439 3.964,-4.28 0.238,-1.21 1.246,-1.946 2.467,-1.83 l 0.185,0.017 c 1.124,0.106 1.942,1.016 2.141,2.082 1.073,5.738 -15.185,15.146 -16.54,8.207 1.255,0.065 2.511,0.129 3.766,0.194 C 7.398,-3.42 4.941,1.326 0.593,1.904 -0.412,2.038 -0.911,0.457 0,0"
                 style="fill:#48504a;fill-opacity:1;fill-rule:nonzero;stroke:none"
                 id="path1985" />
            </g>
          </g>
        </g>
      </g>
      <g
         id="g1993">
        <g
           id="g1995" />
        <g
           id="g2007">
          <g
             clip-path="url(#clipPath1999)"
             opacity="0.399994"
             id="g2005">
            <g
               transform="translate(671.2002,329.9033)"
               id="g2003">
              <path
                 d="M 0,0 C 0.541,0.525 0.614,0.536 1.237,0.878 2.058,1.329 3.752,0.033 4.204,-0.53 5.269,-1.857 5.501,-3.242 7.267,-3.832 8.587,-4.273 9.696,-3.126 9.798,-1.903 10.004,0.587 6.983,2.977 4.865,3.752 3.405,4.286 2.012,4.459 0.534,3.943 -0.736,3.499 -1.24,2.3 -1.908,1.27 -2.661,0.108 -0.872,-0.848 0,0"
                 style="fill:#48504a;fill-opacity:1;fill-rule:nonzero;stroke:none"
                 id="path2001" />
            </g>
          </g>
        </g>
      </g>
      <g
         id="g2009">
        <g
           id="g2011" />
        <g
           id="g2023">
          <g
             clip-path="url(#clipPath2015)"
             opacity="0.399994"
             id="g2021">
            <g
               transform="translate(664.377,367.8242)"
               id="g2019">
              <path
                 d="m 0,0 c 1.586,0.044 2.332,-5.271 2.766,-6.403 0.494,-1.29 1.001,-2.569 1.43,-3.883 0.321,-0.98 0.561,-1.994 0.833,-2.988 0.252,-0.915 0.944,-1.45 1.08,-2.451 0.45,-3.285 5.517,-2.133 5.024,1.135 -0.146,0.966 -0.468,1.511 -1.114,2.24 -0.568,0.64 -2.429,0.887 -2.873,-0.077 l -1.098,-2.634 c 1.695,0.158 3.39,0.315 5.085,0.471 -0.536,2.063 -1.942,3.749 -2.762,5.708 -0.786,1.878 -1.898,3.59 -2.684,5.467 C 4.588,-0.782 2.977,2.259 -0.305,1.646 -1.275,1.465 -0.918,-0.025 0,0"
                 style="fill:#48504a;fill-opacity:1;fill-rule:nonzero;stroke:none"
                 id="path2017" />
            </g>
          </g>
        </g>
      </g>
      <g
         id="g2025">
        <g
           id="g2027" />
        <g
           id="g2039">
          <g
             clip-path="url(#clipPath2031)"
             opacity="0.399994"
             id="g2037">
            <g
               transform="translate(696.6738,365.8545)"
               id="g2035">
              <path
                 d="m 0,0 c 1.444,-1.509 2.918,-2.132 4.867,-2.804 2.85,-0.983 4.636,-4.557 5.992,-6.971 2.993,-5.323 2.702,-11.007 3.471,-16.845 l 3.24,2.698 c -0.318,0.068 -0.636,0.137 -0.955,0.204 -1.303,0.281 -2.72,-1.11 -2.427,-2.424 0.085,-0.386 0.171,-0.772 0.257,-1.159 0.566,-2.54 4.831,-2.428 5.145,0.201 0.802,6.735 -0.547,14.22 -3.979,20.091 -1.574,2.693 -3.335,5.042 -5.932,6.816 C 7.058,1.596 4.234,0.834 1.426,2.019 0.283,2.5 -0.876,0.915 0,0"
                 style="fill:#48504a;fill-opacity:1;fill-rule:nonzero;stroke:none"
                 id="path2033" />
            </g>
          </g>
        </g>
      </g>
      <g
         id="g2041">
        <g
           id="g2043" />
        <g
           id="g2055">
          <g
             clip-path="url(#clipPath2047)"
             opacity="0.399994"
             id="g2053">
            <g
               transform="translate(697.167,367.207)"
               id="g2051">
              <path
                 d="m 0,0 c -8.023,1.809 -16.165,8.688 -24.802,6.745 -3.633,-0.817 -11.252,-1.502 -11.07,-6.643 0.05,-1.415 1.885,-2.301 2.91,-1.176 3.913,4.287 11.131,4.448 16.298,3.036 5.512,-1.506 10.793,-4.94 16.638,-4.379 C 1.425,-2.278 1.296,-0.292 0,0"
                 style="fill:#48504a;fill-opacity:1;fill-rule:nonzero;stroke:none"
                 id="path2049" />
            </g>
          </g>
        </g>
      </g>
      <g
         id="g2057">
        <g
           id="g2059" />
        <g
           id="g2071">
          <g
             clip-path="url(#clipPath2063)"
             opacity="0.399994"
             id="g2069">
            <g
               transform="translate(664.959,354.6162)"
               id="g2067">
              <path
                 d="m 0,0 c 0.176,-0.026 0.352,-0.055 0.526,-0.087 0.477,-0.081 1.085,0.28 1.004,0.835 -1.39,9.585 -7.86,21.228 -18.513,22.405 -1.909,0.211 -3.081,-2.651 -1.08,-3.393 4.916,-1.823 8.533,-4.056 11.717,-8.292 C -3.786,8.062 -1.917,4.059 0.01,0.275 0.231,0.698 0.454,1.12 0.676,1.542 0.414,1.502 0.153,1.462 -0.108,1.422 -0.968,1.288 -0.756,0.113 0,0"
                 style="fill:#48504a;fill-opacity:1;fill-rule:nonzero;stroke:none"
                 id="path2065" />
            </g>
          </g>
        </g>
      </g>
      <g
         id="g2073">
        <g
           id="g2075" />
        <g
           id="g2087">
          <g
             clip-path="url(#clipPath2079)"
             opacity="0.399994"
             id="g2085">
            <g
               transform="translate(664.5068,365.6504)"
               id="g2083">
              <path
                 d="M 0,0 C 0.506,0.295 1.033,0.387 1.602,0.503 L 0.128,1.232 c 0.389,-0.955 0.485,-1.995 0.926,-2.943 0.152,-0.327 0.33,-0.64 0.527,-0.941 0.517,-0.793 1.198,-1.069 2.1,-1.237 1.098,-0.204 2.181,1.238 1.582,2.223 -0.524,0.86 -1.204,1.601 -1.8,2.416 C 3.016,1.362 2.611,2.019 1.993,2.481 1.131,3.127 -0.326,2.387 0.128,1.232 L 0.219,1.004 C 0.245,1.194 0.272,1.384 0.3,1.574 0.06,1.219 -0.244,0.911 -0.499,0.567 -0.729,0.259 -0.338,-0.196 0,0"
                 style="fill:#48504a;fill-opacity:1;fill-rule:nonzero;stroke:none"
                 id="path2081" />
            </g>
          </g>
        </g>
      </g>
      <g
         id="g2089">
        <g
           id="g2091" />
        <g
           id="g2103">
          <g
             clip-path="url(#clipPath2095)"
             opacity="0.399994"
             id="g2101">
            <g
               transform="translate(718.6836,338.082)"
               id="g2099">
              <path
                 d="m 0,0 c -1.319,-6.515 -2.971,-13.389 -3.777,-20.01 -0.728,-5.978 -0.303,-12.142 -0.246,-18.152 0.066,-6.867 0.056,-13.735 -0.286,-20.596 -0.334,-6.701 -0.164,-13.092 -1.997,-19.646 -3.359,-12.006 -15.65,-21.117 -25.533,-27.673 -5.323,-3.531 -13.104,-3.888 -19.289,-5.018 -7.569,-1.382 -13.518,0.134 -20.893,0.763 -1.869,0.16 -3.102,-2.515 -1.116,-3.35 11.527,-4.841 25.84,-2.358 37.625,0.411 6.092,1.431 11.085,6.103 15.868,9.85 5.917,4.635 11.17,9.808 15.114,16.233 7.231,11.782 5.858,28.219 5.742,41.463 -0.075,8.526 -1.01,17.193 -0.368,25.697 0.48,6.374 4.105,14.274 1.031,20.359 C 1.399,1.272 0.189,0.935 0,0"
                 style="fill:#48504a;fill-opacity:1;fill-rule:nonzero;stroke:none"
                 id="path2097" />
            </g>
          </g>
        </g>
      </g>
      <g
         id="g2105">
        <g
           id="g2107" />
        <g
           id="g2119">
          <g
             clip-path="url(#clipPath2111)"
             opacity="0.399994"
             id="g2117">
            <g
               transform="translate(743.4775,369.1943)"
               id="g2115">
              <path
                 d="m 0,0 c -0.632,-2.774 -2.306,-4.762 -3.285,-7.336 -1.07,-2.816 -1.78,-5.65 -2.374,-8.601 -1.376,-6.841 -2.355,-13.814 -2.928,-20.768 -0.496,-6.027 -0.539,-12.069 -0.581,-18.112 -0.038,-5.632 -0.86,-11.18 -0.993,-16.799 -0.145,-6.138 0.519,-12.165 -0.11,-18.308 -0.73,-7.138 -2.842,-14.085 -5.276,-20.802 -3.875,-10.695 -13.538,-22.671 -25.857,-23.084 0.992,-0.819 1.984,-1.638 2.976,-2.459 -0.15,1.62 2.377,3.661 3.397,4.69 1.707,1.725 3.192,3.955 4.564,5.95 2.993,4.354 3.936,9.444 5.726,14.29 4.123,11.162 6.171,23.474 6.775,35.343 0.695,13.645 1.647,26.383 5.448,39.598 1.779,6.182 4.255,11.838 7.233,17.538 2.242,4.293 4.083,8.974 6.524,13.128 -1.59,0.803 -3.179,1.606 -4.769,2.41 -4.881,-9.173 -7.075,-19.454 -10.656,-29.122 -3.785,-10.223 -4.785,-21.226 -5.114,-32.041 -0.35,-11.552 -0.411,-22.92 -2.133,-34.387 -0.841,-5.606 -2.076,-10.951 -4.225,-16.206 -1.497,-3.661 -3.517,-10.28 -7.142,-12.281 1.452,-1.267 2.904,-2.535 4.357,-3.801 2.739,7.978 6.879,15.578 10.021,23.431 3.159,7.897 5.086,15.746 6.295,24.149 1.246,8.662 2.847,17.356 3.543,26.082 0.33,4.137 0.548,8.272 1.099,12.389 0.574,4.296 2.305,8.368 2.62,12.69 0.238,3.277 -3.998,5.051 -5.653,1.857 -3.056,-5.905 -2.927,-12.818 -3.807,-19.233 -1.221,-8.897 -1.809,-17.88 -2.444,-26.833 -0.628,-8.868 -2.435,-17.499 -4.255,-26.177 -0.971,-4.63 -6.246,-9.837 -3.983,-14.572 0.892,-1.866 3.354,-1.667 4.661,-0.516 2.343,2.063 3.927,4.798 4.98,7.721 1.705,4.733 3.593,9.389 5.301,14.124 3.47,9.621 2.736,18.906 1.856,28.902 -0.328,3.739 -5.874,3.733 -5.873,-0.096 0.002,-10.932 -0.366,-21.397 -2.265,-32.199 -1.598,-9.093 -8.174,-15.802 -10.965,-24.358 -0.87,-2.667 3.093,-5.074 4.91,-2.786 0.69,0.87 1.308,1.797 1.998,2.666 l -4.623,3.492 c -1.333,-3.257 -3.536,-5.437 -6.188,-7.668 -1.948,-1.639 -4.811,-5.107 -7.12,-5.872 l 2.379,-5.121 c 4.185,2.262 7.776,5.075 11.196,8.376 3.281,3.167 7.076,4.962 9.813,8.735 5.544,7.646 9.559,15.62 11.913,24.788 2.645,10.309 0.315,20.043 0.129,30.459 -0.091,5.083 -1.218,10.077 -1.619,15.13 -0.408,5.121 -0.6,10.242 -1.234,15.343 -0.435,3.505 -5.729,2.974 -5.443,-0.541 0.678,-8.32 1.044,-16.557 2.038,-24.851 0.555,-4.627 0.403,-9.295 0.89,-13.932 0.531,-5.073 1.288,-10.095 0.629,-15.197 -1.179,-9.135 -5.037,-17.99 -10.222,-25.512 -2.692,-3.904 -5.519,-6.186 -9.232,-9.057 -3.86,-2.986 -6.808,-6.304 -11.237,-8.62 -3.312,-1.731 -1.005,-6.211 2.379,-5.121 2.91,0.936 4.975,4.024 7.434,5.787 3.64,2.61 6.877,5.826 8.59,10.007 1.131,2.759 -2.385,6.31 -4.623,3.492 -0.691,-0.871 -1.311,-1.799 -2.002,-2.668 1.637,-0.928 3.273,-1.857 4.91,-2.786 1.376,4.213 4.233,8.113 6.341,11.993 2.44,4.489 4.061,9.092 4.947,14.116 1.886,10.704 2.148,21.157 2.15,32.001 -1.958,-0.033 -3.915,-0.064 -5.873,-0.096 0.775,-8.871 1.5,-17.026 -1.121,-25.68 -1.25,-4.126 -3.831,-8.093 -4.808,-12.256 -0.771,-3.289 -2.021,-6.379 -4.602,-8.65 l 4.661,-0.516 c 0.288,-0.602 2.789,4.435 3.013,4.92 1.515,3.296 2.051,7.055 2.816,10.57 1.475,6.776 2.535,13.665 3.112,20.576 0.708,8.481 1.252,16.963 2.285,25.415 0.782,6.398 0.572,13.844 3.619,19.705 -1.884,0.619 -3.769,1.237 -5.653,1.856 -0.237,-3.191 -1.284,-6.212 -1.99,-9.319 -0.823,-3.619 -1.103,-7.353 -1.358,-11.046 -0.625,-9.028 -1.991,-17.925 -3.262,-26.882 -1.392,-9.811 -3.217,-18.833 -6.896,-28.086 -2.949,-7.416 -6.773,-14.476 -9.582,-21.926 -1.081,-2.867 1.684,-5.21 4.357,-3.8 3.207,1.691 4.782,4.71 6.203,7.916 2.031,4.581 4.678,9.174 5.802,14.102 2.608,11.434 3.822,23.047 3.949,34.768 0.125,11.565 -0.097,23 2.365,34.38 1.318,6.094 3.394,12.143 5.51,18.008 2.119,5.876 3.945,11.931 6.901,17.455 1.636,3.058 -3.033,5.356 -4.769,2.41 -2.199,-3.731 -3.58,-7.92 -5.742,-11.709 -3.039,-5.324 -5.6,-10.954 -7.55,-16.764 -4.176,-12.435 -6.228,-25.811 -6.345,-38.903 -0.066,-7.304 -1.008,-14.495 -2.251,-21.681 -1.138,-6.571 -3.565,-12.573 -5.061,-18.999 -1.534,-6.596 -4.685,-11.518 -8.781,-16.764 -2.126,-2.723 -4.953,-4.828 -4.603,-8.644 0.141,-1.553 1.496,-2.507 2.976,-2.459 10.698,0.345 21.654,9.171 26.835,18.274 6.608,11.608 9.743,26.58 9.61,39.827 -0.137,13.556 0.26,27.226 0.874,40.79 0.333,7.354 1.434,14.551 2.394,21.833 0.805,6.107 3.825,11.849 4.301,17.889 C 3.266,1.137 0.41,1.802 0,0"
                 style="fill:#48504a;fill-opacity:1;fill-rule:nonzero;stroke:none"
                 id="path2113" />
            </g>
          </g>
        </g>
      </g>
      <g
         id="g2121">
        <g
           id="g2123" />
        <g
           id="g2135">
          <g
             clip-path="url(#clipPath2127)"
             opacity="0.399994"
             id="g2133">
            <g
               transform="translate(611.2559,224.998)"
               id="g2131">
              <path
                 d="m 0,0 c 3.209,-0.851 6.003,1.634 8.513,3.438 1.383,0.996 2.337,2.409 3.591,3.532 1.492,1.337 2.76,2.542 3.587,4.378 0.848,1.879 -1.044,4.159 -3.037,3.752 C 11.127,14.789 9.841,13.781 10.018,12.055 10.117,11.081 10.753,10.213 11.65,9.823 15,8.372 11.344,14.229 9.791,12.331 8.723,11.025 7.289,10.088 6.275,8.71 5.355,7.46 3.824,6.63 2.62,5.644 1.624,4.829 1.391,3.599 -0.08,3.317 -1.843,2.979 -1.541,0.408 0,0"
                 style="fill:#48504a;fill-opacity:1;fill-rule:nonzero;stroke:none"
                 id="path2129" />
            </g>
          </g>
        </g>
      </g>
      <g
         id="g2137">
        <g
           id="g2139" />
        <g
           id="g2151">
          <g
             clip-path="url(#clipPath2143)"
             opacity="0.399994"
             id="g2149">
            <g
               transform="translate(619.3525,239.4189)"
               id="g2147">
              <path
                 d="m 0,0 c -2.136,-2.592 -7.435,-2.778 -10.498,-3.983 -2.693,-1.06 -5.034,-2.68 -7.33,-4.408 -1.14,-0.858 -2.135,-2.005 -3.19,-2.965 -1.929,-1.759 -5.07,-2.24 -7.513,-2.843 -5.192,-1.282 -8.428,-4.275 -14.277,-2.837 -8.24,2.025 -14.673,6.203 -21.828,10.424 -3.747,2.211 -6.934,4.781 -9.604,8.282 -2.225,2.919 -3.556,6.508 -5.578,9.579 -0.814,1.236 -3.05,0.559 -2.535,-1.01 2.569,-7.812 6.217,-14.491 13.011,-19.344 8.523,-6.089 18.031,-12.975 28.899,-13.755 4.275,-0.307 8.417,1.145 12.244,2.892 4.911,2.242 8.824,2.841 12.728,6.829 3.508,3.582 8.173,5.234 12.714,7.064 2.682,1.08 5.746,2.552 4.88,5.789 C 1.865,0.676 0.531,0.644 0,0"
                 style="fill:#48504a;fill-opacity:1;fill-rule:nonzero;stroke:none"
                 id="path2145" />
            </g>
          </g>
        </g>
      </g>
      <g
         id="g2153">
        <g
           id="g2155" />
        <g
           id="g2167">
          <g
             clip-path="url(#clipPath2159)"
             opacity="0.399994"
             id="g2165">
            <g
               transform="translate(572.6875,381.1914)"
               id="g2163">
              <path
                 d="m 0,0 c -1.874,-2.687 1.596,-5.893 2.842,-8.053 3.172,-5.496 9.891,-9.058 10.963,-15.677 0.46,-2.841 5.265,-2.494 5.065,0.416 -0.339,4.93 -4.11,9.818 -8.11,12.464 C 8.376,-9.272 6.611,-7.449 5.109,-5.039 4.406,-3.912 1.497,-2.41 2.058,-0.78 2.5,0.509 0.657,0.943 0,0"
                 style="fill:#48504a;fill-opacity:1;fill-rule:nonzero;stroke:none"
                 id="path2161" />
            </g>
          </g>
        </g>
      </g>
      <g
         id="g2169">
        <g
           id="g2171" />
        <g
           id="g2183">
          <g
             clip-path="url(#clipPath2175)"
             opacity="0.399994"
             id="g2181">
            <g
               transform="translate(614.1416,246.9922)"
               id="g2179">
              <path
                 d="m 0,0 c 0.641,-1.851 1.981,-2.802 3.895,-3.013 1.727,-0.19 4.093,-0.069 5.606,0.824 0.79,0.466 1.064,1.906 0.063,2.357 C 7.994,0.876 6.545,0.479 5.02,0.068 3.755,-0.272 2.372,-0.422 1.591,0.898 1.038,1.834 -0.323,0.934 0,0"
                 style="fill:#48504a;fill-opacity:1;fill-rule:nonzero;stroke:none"
                 id="path2177" />
            </g>
          </g>
        </g>
      </g>
      <g
         id="g2185"
         transform="translate(579.2295,235.7568)">
        <path
           d="m 0,0 c -5.726,-5.843 -13.617,8.12 -15.302,11.729 -1.948,4.17 -3.776,9.002 -2.427,13.567 1.065,3.605 4.067,6.404 6.375,9.22 1.218,1.486 -0.765,3.15 -2.153,1.953 -4.06,-3.502 -7.129,-8.197 -7.936,-13.534 -0.731,-4.824 2.56,-11.055 4.689,-15.128 C -13.938,2.42 -4.859,-8.879 1.203,-0.927 1.737,-0.226 0.595,0.606 0,0"
           style="fill:#1d1d1b;fill-opacity:1;fill-rule:nonzero;stroke:none"
           id="path2187" />
      </g>
      <g
         id="g2189"
         transform="translate(562.5137,266.2012)">
        <path
           d="m 0,0 c -3.261,0.554 -4.281,3.367 -6.031,5.743 -2.302,3.125 -4.011,7.48 -2.785,11.326 0.201,0.632 1.289,1.408 1.379,2.258 0.089,0.847 -0.578,2.384 -0.822,3.207 -1.329,4.483 -1.274,7.076 1.785,10.781 0.578,0.7 -0.328,1.91 -1.149,1.435 -3.261,-1.888 -4.547,-4.563 -4.252,-8.305 0.104,-1.325 2.305,-6.08 1.43,-7.156 -1.119,-1.377 -1.278,-3.389 -1.284,-5.067 C -11.753,8.536 -6.541,-1.523 -0.078,-1.436 0.867,-1.423 0.9,-0.153 0,0"
           style="fill:#1d1d1b;fill-opacity:1;fill-rule:nonzero;stroke:none"
           id="path2191" />
      </g>
      <g
         id="g2193"
         transform="translate(554.3555,300.5625)">
        <path
           d="m 0,0 c -1.407,1.862 -1.478,3.987 -2.477,5.794 -2.143,3.88 -3.788,6.144 -3.907,10.98 -0.19,7.733 4.058,15.559 11.981,17.171 2.071,0.422 1.347,3.673 -0.721,3.201 C -3.027,35.347 -7.412,28.901 -8.77,21.216 -9.533,16.895 -8.938,12.612 -7.172,8.629 -5.801,5.535 -3.354,1.483 -1.059,-0.975 -0.415,-1.663 0.549,-0.728 0,0"
           style="fill:#1d1d1b;fill-opacity:1;fill-rule:nonzero;stroke:none"
           id="path2195" />
      </g>
      <g
         id="g2197"
         transform="translate(558.7285,337.001)">
        <path
           d="m 0,0 c 4.422,4.571 7.114,10.472 12.646,13.935 6.202,3.881 14.56,2.643 21.394,2.207 2.174,-0.139 2.159,3.362 -0.051,3.406 C 26.598,19.695 19.447,20.264 12.534,16.94 5.908,13.755 2.975,6.682 -1.156,1.098 -1.749,0.296 -0.735,-0.761 0,0"
           style="fill:#1d1d1b;fill-opacity:1;fill-rule:nonzero;stroke:none"
           id="path2199" />
      </g>
      <g
         id="g2201"
         transform="translate(591.6631,355.0322)">
        <path
           d="m 0,0 c -4.498,8.307 7.112,16.201 13.709,18.402 3.698,1.234 7.78,1.065 11.598,0.68 3.994,-0.401 7.963,-2.343 11.937,-2.01 1.777,0.149 1.673,2.505 0.123,2.942 -9.345,2.631 -19.867,4 -28.634,-1.112 C 2.634,15.346 -5.901,6.998 -0.662,-0.46 -0.395,-0.841 0.215,-0.397 0,0"
           style="fill:#1d1d1b;fill-opacity:1;fill-rule:nonzero;stroke:none"
           id="path2203" />
      </g>
      <g
         id="g2205"
         transform="translate(629.4434,371.918)">
        <path
           d="m 0,0 c 1.841,7.09 12.015,5.671 16.679,4.02 5.218,-1.847 10.607,-5.759 14.221,-9.911 2.654,-3.048 4.236,-7.008 5.723,-10.71 1.19,-2.961 2.317,-6.052 5.632,-6.912 2.349,-0.609 3.458,3.32 1.168,4.082 -2.073,0.691 -3.157,5.139 -3.997,6.978 -1.044,2.285 -2.253,4.473 -3.643,6.564 C 32.522,-0.983 27.504,2.242 22.425,5.021 16.112,8.473 -0.271,11.403 -1.369,0.271 -1.446,-0.517 -0.203,-0.779 0,0"
           style="fill:#1d1d1b;fill-opacity:1;fill-rule:nonzero;stroke:none"
           id="path2207" />
      </g>
      <g
         id="g2209"
         transform="translate(664.0205,366.3066)">
        <path
           d="m 0,0 c 1.623,7.958 14.088,5.724 19.024,4.099 2.235,-0.736 4.423,-1.598 6.663,-2.32 2.629,-0.845 5.221,-0.541 7.936,-0.951 2.698,-0.407 5.318,-2.248 7.74,-3.43 3.3,-1.61 3.7,-4.409 5.526,-7.119 3.943,-5.847 3.566,-12.64 4.477,-19.335 0.222,-1.625 2.466,-1.144 2.655,0.256 0.463,3.452 0.49,6.788 0.11,10.254 -0.509,4.633 -2.947,7.777 -4.551,11.942 C 47.27,-0.602 40.064,2.874 34.256,4.357 32.75,4.741 31.098,4.696 29.554,4.741 26.92,4.817 24.2,5.966 21.702,6.724 17.91,7.875 13.552,9.188 9.532,8.537 5.028,7.809 -1.044,5.422 -1.305,0.141 -1.348,-0.716 -0.167,-0.821 0,0"
           style="fill:#1d1d1b;fill-opacity:1;fill-rule:nonzero;stroke:none"
           id="path2211" />
      </g>
      <g
         id="g2213"
         transform="translate(724.54,336.0312)">
        <path
           d="m 0,0 c 0.04,7.243 -11.07,-0.72 -13.173,-2.337 -10.893,-8.377 -18.556,-22.517 -25.215,-34.238 -3.923,-6.907 -7.814,-13.89 -12.282,-20.461 -4.495,-6.612 -8.622,-13.805 -13.565,-20.069 -4.698,-5.956 -9.847,-12.529 -16.554,-16.268 -2.402,-1.34 -5.288,-1.817 -7.856,-2.795 -1.819,-0.691 -7.271,-2.883 -8.777,-0.926 -1.168,1.517 -3.632,-0.178 -2.449,-1.679 2.136,-2.71 5.833,-1.845 8.787,-1.179 4.847,1.093 10.223,2.978 14.392,5.668 11.989,7.737 17.839,21.936 26.261,32.768 8.768,11.277 14.565,24.787 22.211,36.816 3.89,6.12 8.283,11.888 13.17,17.246 1.361,1.491 12.968,11.433 13.779,7.442 C -1.134,-0.685 -0.004,-0.763 0,0"
           style="fill:#1d1d1b;fill-opacity:1;fill-rule:nonzero;stroke:none"
           id="path2215" />
      </g>
      <g
         id="g2217"
         transform="translate(625,239.126)">
        <path
           d="m 0,0 c 9.152,-16.943 30.045,-18.736 47.355,-18.016 10.371,0.432 18.541,3.47 26.95,9.441 8.574,6.087 15.838,13.777 19.921,23.536 3.636,8.691 3.363,17.938 3.682,27.15 0.294,8.503 -0.01,16.725 -0.302,25.192 -0.197,5.715 -0.324,11.427 -0.179,17.145 0.063,2.506 -0.266,15.184 3.136,15.596 1.649,0.2 1.198,2.699 -0.435,2.525 -6.405,-0.68 -5.546,-17.416 -5.68,-21.4 C 94.289,76.424 94.326,71.674 94.37,66.927 94.403,63.315 94.91,59.74 94.955,56.12 95.021,50.761 94.51,45.396 94.316,40.043 93.927,29.266 93.335,19.734 87.839,10.135 82.868,1.452 73.469,-5.443 64.938,-10.311 55.057,-15.946 41.532,-15.095 30.599,-13.987 19.08,-12.82 8.391,-8.978 1.645,1.049 1.023,1.974 -0.522,0.968 0,0"
           style="fill:#1d1d1b;fill-opacity:1;fill-rule:nonzero;stroke:none"
           id="path2219" />
      </g>
      <g
         id="g2221"
         transform="translate(722.125,338.0195)">
        <path
           d="m 0,0 c -8.759,-7.403 -11.619,-18.054 -14.474,-28.821 -1.784,-6.73 -4.828,-13.099 -7.292,-19.589 -2.603,-6.858 -4.566,-13.845 -7.876,-20.422 -6.14,-12.201 -12.595,-23.133 -24.924,-29.726 -9.516,-5.088 -22.592,-11.755 -32.632,-3.622 -0.648,0.526 -1.52,-0.563 -0.92,-1.13 6.813,-6.425 18.388,-4.454 26.009,-0.875 11.576,5.438 20.862,11.81 27.629,22.886 7.273,11.905 10.861,24.847 15.911,37.71 2.97,7.566 4.801,15.508 7.734,23.047 2.946,7.573 6.347,13.524 11.62,19.705 C 1.203,-0.346 0.508,0.429 0,0"
           style="fill:#1d1d1b;fill-opacity:1;fill-rule:nonzero;stroke:none"
           id="path2223" />
      </g>
      <g
         id="g2225"
         transform="translate(672.9512,279.4785)">
        <path
           d="m 0,0 c 2.443,-3.296 3.947,-10.091 4.019,-14.304 0.039,-2.29 0.077,-4.578 0.077,-6.868 0,-2.932 1.189,-5.735 1.441,-8.648 0.081,-0.932 1.55,-1 1.469,-0.059 -0.255,2.935 -1.188,5.708 -1.442,8.647 -0.241,2.783 0.807,6.26 0.067,8.936 C 4.393,-7.816 4.319,-2.734 1.012,0.836 0.437,1.456 -0.506,0.682 0,0"
           style="fill:#1d1d1b;fill-opacity:1;fill-rule:nonzero;stroke:none"
           id="path2227" />
      </g>
      <g
         id="g2229"
         transform="translate(678.5742,250.7256)">
        <path
           d="m 0,0 c 4.22,-9.503 15.693,-11.898 25.248,-10.646 1.008,0.131 1.08,1.66 0.039,1.797 C 16.1,-7.639 6.324,-9.111 1.297,0.689 0.86,1.54 -0.38,0.856 0,0"
           style="fill:#1d1d1b;fill-opacity:1;fill-rule:nonzero;stroke:none"
           id="path2231" />
      </g>
      <g
         id="g2233"
         transform="translate(683.1973,294.1348)">
        <path
           d="m 0,0 c 2.35,-4.084 2.931,-8.782 4.847,-13.047 1.498,-3.335 3.181,-7.741 3.53,-11.358 0.077,-0.804 1.337,-0.644 1.24,0.156 -0.221,1.831 -0.836,3.446 -1.531,5.154 -0.593,1.456 -0.806,3.918 -1.535,5.138 C 3.868,-9.463 3.386,-4.146 0.699,0.35 0.443,0.777 -0.253,0.439 0,0"
           style="fill:#1d1d1b;fill-opacity:1;fill-rule:nonzero;stroke:none"
           id="path2235" />
      </g>
      <g
         id="g2237"
         transform="translate(691.4268,271.0342)">
        <path
           d="m 0,0 c 0.999,-2.388 2.66,-3.741 4.9,-5.022 1.777,-1.017 5.272,-2.858 7.336,-2.977 4.892,-0.284 11.832,-3.054 15.119,2.062 0.471,0.733 -0.551,1.49 -1.166,0.924 C 20.983,-9.8 4.397,-5.445 1.45,0.626 1.06,1.431 -0.347,0.827 0,0"
           style="fill:#1d1d1b;fill-opacity:1;fill-rule:nonzero;stroke:none"
           id="path2239" />
      </g>
      <g
         id="g2241"
         transform="translate(696.0186,314.4785)">
        <path
           d="m 0,0 c -0.143,-6.942 0.817,-14.313 4.185,-20.498 0.449,-0.824 1.628,-0.189 1.279,0.658 C 2.793,-13.374 1.339,-6.982 1,0.02 0.969,0.665 0.013,0.644 0,0"
           style="fill:#1d1d1b;fill-opacity:1;fill-rule:nonzero;stroke:none"
           id="path2243" />
      </g>
      <g
         id="g2245"
         transform="translate(700.4756,293.8623)">
        <path
           d="m 0,0 c 5.479,-5.21 12.804,-3.122 19.364,-1.796 0.821,0.166 0.73,1.54 -0.089,1.629 C 12.816,0.539 6.772,-3.525 0.734,0.895 0.13,1.337 -0.539,0.514 0,0"
           style="fill:#1d1d1b;fill-opacity:1;fill-rule:nonzero;stroke:none"
           id="path2247" />
      </g>
      <g
         id="g2249"
         transform="translate(661.3652,259.6768)">
        <path
           d="m 0,0 c -0.197,-6.238 -2.23,-15.118 2.311,-20.377 4.978,-5.766 12.121,-11.081 19.813,-12.305 1.157,-0.184 1.452,1.648 0.37,1.981 -6.509,2.001 -12.046,4.867 -17.083,9.445 C -0.735,-15.67 1.09,-7.242 1.123,0.082 1.126,0.814 0.022,0.712 0,0"
           style="fill:#1d1d1b;fill-opacity:1;fill-rule:nonzero;stroke:none"
           id="path2251" />
      </g>
      <g
         id="g2253"
         transform="translate(524.5342,297.0605)">
        <path
           d="m 0,0 c 2.296,-8.533 2.151,-17.487 3.707,-26.148 0.913,-5.09 2.02,-10.123 3.517,-15.078 3.869,-12.804 11.389,-23.813 22.075,-31.87 10.244,-7.724 23.325,-11.621 35.958,-8.543 7.039,1.715 12.976,6.531 18.901,10.469 2.972,1.976 6.562,3.605 9.09,6.124 2.309,2.3 5.062,5.471 8.447,5.935 2.076,0.284 1.397,3.463 -0.672,3.179 -4.001,-0.547 -7.181,-3.99 -9.921,-6.672 -2.73,-2.673 -6.721,-4.544 -9.901,-6.658 -3.048,-2.026 -6.097,-4.047 -9.2,-5.988 C 58.97,-83.4 42.963,-79.028 31.216,-70.754 21.129,-63.649 14.11,-53.156 9.978,-41.674 5.072,-28.044 5.741,-13.313 0.932,0.264 0.726,0.847 -0.164,0.608 0,0"
           style="fill:#1d1d1b;fill-opacity:1;fill-rule:nonzero;stroke:none"
           id="path2255" />
      </g>
      <g
         id="g2257"
         transform="translate(577.7871,236.4551)">
        <path
           d="m 0,0 c 2.499,-5.76 8.253,-8.809 14.734,-7.518 5.249,1.045 9.183,3.982 14.28,5.232 3.056,0.75 5.922,1.884 9.041,2.433 2.203,0.388 4.245,0.71 6.215,1.786 1.146,0.626 0.8,2.796 -0.667,2.388 C 36.744,2.415 29.721,1.248 23.122,-1.531 22.046,-1.984 20.623,-3.327 19.638,-3.832 17.836,-4.756 14.701,-5.287 12.837,-5.531 7.523,-6.225 3.417,-4.064 1.084,0.402 0.75,1.043 -0.304,0.7 0,0"
           style="fill:#1d1d1b;fill-opacity:1;fill-rule:nonzero;stroke:none"
           id="path2259" />
      </g>
      <g
         id="g2261"
         transform="translate(525.8359,295.6826)">
        <path
           d="m 0,0 c 0.457,-2.236 2.193,-3.928 3.69,-5.559 3.329,-3.624 6.18,-7.605 9.629,-11.161 6.259,-6.452 13.179,-12.298 21.536,-15.81 1.136,-0.478 1.808,1.29 0.684,1.779 -6.967,3.033 -13.078,7.482 -18.52,12.749 -3.713,3.594 -7.352,7.311 -10.501,11.416 C 4.885,-4.456 1.869,-2.351 1.171,0.295 0.996,0.959 -0.137,0.669 0,0"
           style="fill:#1d1d1b;fill-opacity:1;fill-rule:nonzero;stroke:none"
           id="path2263" />
      </g>
      <g
         id="g2265"
         transform="translate(527.6475,294.2256)">
        <path
           d="m 0,0 c 4.838,-13.878 6.983,-27.494 16.354,-39.352 7.11,-8.996 18.798,-22.461 31.544,-21.748 0.762,0.042 0.689,1.219 -0.029,1.301 -13.005,1.493 -22.437,11.82 -30.454,21.429 C 7.88,-26.942 6.732,-12.785 0.471,0.168 0.334,0.451 -0.108,0.312 0,0"
           style="fill:#1d1d1b;fill-opacity:1;fill-rule:nonzero;stroke:none"
           id="path2267" />
      </g>
      <g
         id="g2269"
         transform="translate(529.2002,263.7383)">
        <path
           d="m 0,0 c 3.354,-1.886 6.428,-4.253 9.827,-6.052 1.342,-0.71 3.714,-0.331 4.561,1.018 1.229,1.958 1.068,4.321 0.941,6.545 -0.229,4.051 0.111,7.768 1.219,11.664 0.155,0.546 -0.707,0.948 -1.017,0.468 C 13.091,9.849 13.755,4.586 13.962,0.288 14.006,-0.613 13.97,-1.504 13.876,-2.4 13.534,-5.646 10.843,-4.99 8.748,-3.932 5.88,-2.482 3.145,-0.788 0.248,0.607 -0.142,0.795 -0.358,0.201 0,0"
           style="fill:#1d1d1b;fill-opacity:1;fill-rule:nonzero;stroke:none"
           id="path2271" />
      </g>
      <g
         id="g2273"
         transform="translate(536.3389,246.499)">
        <path
           d="m 0,0 c 1.94,-1.659 4.86,-3.042 7.421,-3.164 3.06,-0.145 5.887,-0.969 8.887,-1.434 2.411,-0.374 4.463,-0.032 6.707,-1.36 0.491,-0.291 1.001,0.425 0.58,0.804 -2.523,2.279 -6.202,1.485 -9.325,2.099 C 9.647,-2.145 4.296,-2.499 0.383,0.494 0.061,0.741 -0.305,0.261 0,0"
           style="fill:#1d1d1b;fill-opacity:1;fill-rule:nonzero;stroke:none"
           id="path2275" />
      </g>
      <g
         id="g2277"
         transform="translate(554.7988,269.8115)">
        <path
           d="m 0,0 c 0.043,-8.179 0.979,-16.352 1.41,-24.517 0.034,-0.646 0.983,-0.623 1,0.02 C 2.64,-16.318 1.082,-8.185 0.937,-0.008 0.927,0.597 -0.003,0.604 0,0"
           style="fill:#1d1d1b;fill-opacity:1;fill-rule:nonzero;stroke:none"
           id="path2279" />
      </g>
      <g
         id="g2281"
         transform="translate(556.7275,223.4355)">
        <path
           d="m 0,0 c 3.448,0.208 5.911,2.557 8.322,4.802 3.001,2.794 6.673,4.865 9.461,7.885 0.639,0.692 -0.287,1.69 -1.01,1.068 C 14.242,11.574 11.693,9.416 9.155,7.242 6.3,4.799 3.921,1.098 -0.037,0.498 -0.353,0.45 -0.325,-0.02 0,0"
           style="fill:#1d1d1b;fill-opacity:1;fill-rule:nonzero;stroke:none"
           id="path2283" />
      </g>
      <g
         id="g2285"
         transform="translate(579.2246,233.7422)">
        <path
           d="m 0,0 c -0.04,-4.963 -0.451,-9.743 -2.862,-14.141 -0.357,-0.649 0.741,-1.168 1.05,-0.482 0.603,1.334 1.324,2.569 1.775,3.963 1.114,3.437 1.15,7.147 1.129,10.724 C 1.088,0.773 0.006,0.699 0,0"
           style="fill:#1d1d1b;fill-opacity:1;fill-rule:nonzero;stroke:none"
           id="path2287" />
      </g>
      <g
         id="g2289"
         transform="translate(610.8779,228.0986)">
        <path
           d="m 0,0 c -1.588,-6.444 7.961,-7.222 12.272,-6.799 1.093,0.108 1.029,1.78 -0.035,1.891 C 8.928,-4.564 0.292,-5.795 1.205,-0.18 1.334,0.61 0.184,0.748 0,0"
           style="fill:#1d1d1b;fill-opacity:1;fill-rule:nonzero;stroke:none"
           id="path2291" />
      </g>
      <g
         id="g2293"
         transform="translate(622.3125,226.1211)">
        <path
           d="m 0,0 c 2.622,-4.197 6.929,-5.774 11.745,-5.475 3.437,0.214 8.978,2.084 9.993,5.768 0.165,0.6 -0.58,1.259 -1.153,0.978 C 17.929,-0.027 16.185,-2.1 13.15,-2.946 8.84,-4.148 4.022,-2.777 1.396,0.893 0.778,1.756 -0.568,0.911 0,0"
           style="fill:#1d1d1b;fill-opacity:1;fill-rule:nonzero;stroke:none"
           id="path2295" />
      </g>
      <g
         id="g2297"
         transform="translate(562.7676,344.8301)">
        <path
           d="m 0,0 c 1.908,3.223 2.947,6.615 4.23,10.103 1.007,2.738 2.513,4.912 3.253,7.82 0.713,2.8 1.741,6.128 1.617,9.014 -0.151,3.477 -1.184,6.871 0.043,10.278 -0.447,-0.136 -0.893,-0.271 -1.339,-0.406 2.082,-2.241 3.594,-4.573 4.998,-7.262 1.108,-2.125 2.747,-2.443 4.707,-4.012 3.887,-3.112 7.782,-7.382 10.327,-11.641 0.553,-0.925 1.898,-0.037 1.396,0.892 -2.322,4.291 -6.222,7.746 -9.668,11.135 -2.043,2.011 -4.631,3.105 -6.018,5.742 -1.237,2.355 -2.832,4.399 -4.639,6.331 C 8.45,38.482 7.755,38.11 7.568,37.588 6.777,35.37 6.887,33.233 7.083,30.905 7.372,27.476 7.23,24.646 6.575,21.23 5.931,17.871 5.143,14.831 3.391,11.843 1.431,8.498 0.996,3.741 -0.629,0.335 -0.805,-0.033 -0.207,-0.351 0,0"
           style="fill:#1d1d1b;fill-opacity:1;fill-rule:nonzero;stroke:none"
           id="path2299" />
      </g>
      <g
         id="g2301"
         transform="translate(571.0117,380.7803)">
        <path
           d="m 0,0 c -0.062,-3.43 1.758,-6.612 3.219,-9.607 2.6,-5.329 3.722,-11.297 6.324,-16.688 0.376,-0.779 1.57,-0.275 1.387,0.533 -1.055,4.671 -3.12,9.376 -4.846,13.84 C 4.561,-7.983 1.253,-4.329 1,0.02 0.963,0.664 0.012,0.645 0,0"
           style="fill:#1d1d1b;fill-opacity:1;fill-rule:nonzero;stroke:none"
           id="path2303" />
      </g>
      <g
         id="g2305"
         transform="translate(611.877,337.1963)">
        <path
           d="m 0,0 c 7.777,9.357 23.076,3.863 26.019,-7.022 0.288,-1.067 1.803,-1.062 1.95,0.087 C 28.79,-0.53 21.776,3.918 16.564,5.736 9.486,8.206 3.174,7.295 -0.87,0.595 -1.184,0.074 -0.382,-0.46 0,0"
           style="fill:#1d1d1b;fill-opacity:1;fill-rule:nonzero;stroke:none"
           id="path2307" />
      </g>
      <g
         id="g2309"
         transform="translate(639.1338,328.3037)">
        <path
           d="m 0,0 c 5.822,3.448 10.419,-0.751 13.182,-5.779 0.716,-1.304 2.581,-0.064 1.925,1.224 C 12.015,1.521 5.479,5.874 -0.687,1.104 -1.263,0.659 -0.645,-0.382 0,0"
           style="fill:#1d1d1b;fill-opacity:1;fill-rule:nonzero;stroke:none"
           id="path2311" />
      </g>
      <g
         id="g2313"
         transform="translate(579.9521,301.6416)">
        <path
           d="m 0,0 c -0.316,-5.694 -0.881,-12.456 2.707,-17.304 1.355,-1.831 4.145,0.329 3.16,2.241 C 3.361,-10.192 2.809,-5.312 2.51,0.073 2.43,1.518 0.079,1.421 0,0"
           style="fill:#1d1d1b;fill-opacity:1;fill-rule:nonzero;stroke:none"
           id="path2315" />
      </g>
      <g
         id="g2317"
         transform="translate(568.5488,325.8066)">
        <path
           d="m 0,0 c 1.939,3.52 4.369,9.487 9.016,5.223 0.514,-0.473 1.331,-0.406 1.697,0.219 1.469,2.506 4.272,4.579 7.156,2.746 0.935,-0.595 1.955,0.548 1.119,1.345 -3.505,3.345 -8.04,0.514 -10.14,-3.018 0.565,0.073 1.131,0.146 1.697,0.219 C 4.472,12.153 1.445,5.387 -0.661,0.341 -0.824,-0.049 -0.207,-0.375 0,0"
           style="fill:#1d1d1b;fill-opacity:1;fill-rule:nonzero;stroke:none"
           id="path2319" />
      </g>
      <g
         id="g2321"
         transform="translate(581.2217,257.2881)">
        <path
           d="m 0,0 c -1.285,0.141 -2.996,0.314 -3.642,-1.1 -0.813,-1.784 -1.326,-3.482 -0.491,-5.352 1.323,-2.965 5.744,-3.866 8.617,-3.618 1.155,0.099 0.982,1.826 -0.088,1.95 -1.846,0.215 -3.835,0.579 -5.454,1.522 -0.921,0.538 -1.41,1.361 -1.45,2.411 -0.026,0.677 0.237,1.333 0.49,1.946 0.06,0.153 0.079,0.311 0.058,0.474 -0.008,0.742 1.579,0.814 2.062,0.874 C 0.643,-0.825 0.47,-0.052 0,0"
           style="fill:#1d1d1b;fill-opacity:1;fill-rule:nonzero;stroke:none"
           id="path2323" />
      </g>
      <g
         id="g2325"
         transform="translate(685.3057,348.7578)">
        <path
           d="m 0,0 c 1.931,1.66 4.345,2.646 6.774,1.457 2.338,-1.144 2.421,-3.844 3.573,-5.817 0.421,-0.722 1.728,-0.806 1.797,0.244 C 12.342,-1.071 9.923,2.127 7.112,3.161 4.234,4.22 1.342,2.716 -0.635,0.646 -1.041,0.221 -0.44,-0.379 0,0"
           style="fill:#1d1d1b;fill-opacity:1;fill-rule:nonzero;stroke:none"
           id="path2327" />
      </g>
      <g
         id="g2329"
         transform="translate(695.46,347.7148)">
        <path
           d="M 0,0 C -0.733,3.753 7.418,2.736 9.349,1.975 10.446,1.543 11.093,3.102 10.065,3.641 7.015,5.24 -2.804,5.5 -0.732,-0.25 -0.58,-0.674 0.083,-0.42 0,0"
           style="fill:#1d1d1b;fill-opacity:1;fill-rule:nonzero;stroke:none"
           id="path2331" />
      </g>
      <g
         id="g2333"
         transform="translate(622.9551,362.8086)">
        <path
           d="M 0,0 C 4.365,-0.104 8.521,0.685 12.873,-0.176 13.994,-0.397 14.26,1.267 13.182,1.547 8.409,2.785 4.759,1.646 -0.067,1.362 -0.849,1.316 -0.771,0.019 0,0"
           style="fill:#1d1d1b;fill-opacity:1;fill-rule:nonzero;stroke:none"
           id="path2335" />
      </g>
      <g
         id="g2337"
         transform="translate(715.6689,351.6045)">
        <path
           d="m 0,0 c 7.363,9.296 20.309,15.382 31.599,18.265 -0.392,0.327 -0.784,0.653 -1.174,0.98 -0.592,-2.714 -2.875,-4.396 -3.832,-6.958 -0.796,-2.128 -1.582,-4.218 -2.137,-6.424 -1.55,-6.16 -1.185,-13.314 -1.805,-19.654 -1.277,-13.084 0.297,-26.84 1.184,-39.913 0.471,-6.958 1.343,-13.312 0.426,-20.267 -1.174,-8.903 -2.475,-16.652 -7.689,-24.164 -6.851,-9.87 -21.174,-31.102 -34.746,-18.619 -1.198,1.103 -3.175,-0.514 -2.197,-1.865 7.504,-10.371 21.041,-3.778 27.921,3.457 5.673,5.966 10.655,12.536 15.284,19.331 4.401,6.462 4.64,16.031 5.595,23.496 1.01,7.901 -0.841,15.624 -0.99,23.547 -0.15,8.049 -1.119,16.041 -1.45,24.081 -0.345,8.405 1.194,16.715 1.258,25.109 0.026,3.469 0.579,6.604 1.618,9.903 0.963,3.055 2.99,5.362 3.304,8.643 0.066,0.692 -0.51,1.163 -1.174,0.981 C 19.54,16.776 5.863,10.824 -0.903,0.6 -1.249,0.079 -0.381,-0.48 0,0"
           style="fill:#1d1d1b;fill-opacity:1;fill-rule:nonzero;stroke:none"
           id="path2339" />
      </g>
      <g
         id="g2341"
         transform="translate(743.3506,369.8203)">
        <path
           d="m 0,0 c -1.988,-3.155 -5.366,-5.312 -8.036,-7.879 -2.516,-2.419 -5.378,-4.495 -8,-6.798 -5.448,-4.786 -7.083,-12.221 -9.951,-18.664 -0.45,-1.012 1.047,-1.732 1.55,-0.742 1.665,3.273 2.956,6.696 4.35,10.09 1.952,4.749 5.156,7.807 9.021,10.971 4.227,3.46 9.744,7.131 12.531,11.901 C 2.05,-0.119 0.643,1.02 0,0"
           style="fill:#1d1d1b;fill-opacity:1;fill-rule:nonzero;stroke:none"
           id="path2343" />
      </g>
      <g
         id="g2345"
         transform="translate(724.2119,345.7461)">
        <path
           d="M 0,0 C 2.881,1.44 5.741,2.903 8.518,4.539 8.813,4.712 8.533,5.179 8.229,5.052 5.219,3.796 2.3,2.362 -0.615,0.904 -1.243,0.59 -0.622,-0.312 0,0"
           style="fill:#1d1d1b;fill-opacity:1;fill-rule:nonzero;stroke:none"
           id="path2347" />
      </g>
      <g
         id="g2349"
         transform="translate(719.5557,321.29)">
        <path
           d="m 0,0 c 3.591,0.186 6.684,1.947 9.692,3.782 1.898,1.157 3.657,2.716 5.805,3.373 1.97,0.603 3.62,1.505 5.193,2.811 0.71,0.59 -0.281,1.68 -0.974,1.058 C 17.233,8.796 13.925,7.997 11.156,6.083 7.8,3.764 4.121,1.148 -0.06,0.803 -0.515,0.765 -0.456,-0.023 0,0"
           style="fill:#1d1d1b;fill-opacity:1;fill-rule:nonzero;stroke:none"
           id="path2351" />
      </g>
      <g
         id="g2353"
         transform="translate(721.3145,299.6318)">
        <path
           d="m 0,0 c 6.139,2.96 12.092,6.355 18.645,8.337 0.964,0.291 0.578,1.753 -0.401,1.51 C 11.489,8.17 5.5,4.108 -0.586,0.887 -1.199,0.562 -0.602,-0.29 0,0"
           style="fill:#1d1d1b;fill-opacity:1;fill-rule:nonzero;stroke:none"
           id="path2355" />
      </g>
      <g
         id="g2357"
         transform="translate(721.6094,276.6279)">
        <path
           d="m 0,0 c 1.307,1.863 3.525,2.625 5.601,3.243 1.295,0.385 2.993,0.164 4.216,0.625 2.84,1.071 5.247,2.509 8.415,2.838 1.155,0.119 0.972,1.808 -0.166,1.773 C 14.365,8.37 11.37,5.846 7.909,5.495 4.562,5.155 0.571,3.846 -1.176,0.771 -1.621,-0.012 -0.524,-0.748 0,0"
           style="fill:#1d1d1b;fill-opacity:1;fill-rule:nonzero;stroke:none"
           id="path2359" />
      </g>
      <g
         id="g2361"
         transform="translate(717.8223,255.0908)">
        <path
           d="m 0,0 c 2.059,-1.807 5.142,-1.22 7.591,-0.718 2.183,0.448 7.798,1.515 9.019,3.665 0.148,0.26 0,0.679 -0.32,0.724 C 14.826,3.879 13.008,2.581 11.696,2.073 9.217,1.112 3.367,-1.535 0.545,0.676 0.155,0.981 -0.372,0.327 0,0"
           style="fill:#1d1d1b;fill-opacity:1;fill-rule:nonzero;stroke:none"
           id="path2363" />
      </g>
      <g
         id="g2365"
         transform="translate(709.1377,242.0254)">
        <path
           d="m 0,0 c 2.897,-2.889 7.79,-5.344 11.983,-4.576 0.781,0.142 0.665,1.137 -0.029,1.301 -1.672,0.396 -3.411,0.386 -5.098,0.787 C 4.56,-1.944 2.46,-0.771 0.707,0.793 0.192,1.252 -0.482,0.48 0,0"
           style="fill:#1d1d1b;fill-opacity:1;fill-rule:nonzero;stroke:none"
           id="path2367" />
      </g>
      <g
         id="g2369"
         transform="translate(644.835,225.8643)">
        <path
           d="m 0,0 c -0.464,0.089 -0.915,0.219 -1.377,0.318 -0.604,0.13 -1.141,-0.205 -1.325,-0.788 -2.274,-7.187 0.68,-14.521 1.2,-21.756 0.371,-5.173 1.507,-10.737 4.174,-15.248 1.054,-1.781 3.975,-0.359 2.896,1.405 -2.843,4.646 -3.74,10.203 -4.195,15.554 -0.289,3.394 -4.406,18.512 -1.391,19.034 C 0.727,-1.353 0.744,-0.144 0,0"
           style="fill:#1d1d1b;fill-opacity:1;fill-rule:nonzero;stroke:none"
           id="path2371" />
      </g>
      <g
         id="g2373"
         transform="translate(647.7227,190.2461)">
        <path
           d="m 0,0 c -3.266,0.341 -9.763,-1.142 -10.263,-5.175 -0.134,-1.086 1.092,-2.376 2.17,-1.52 1.648,1.308 2.515,2.653 4.57,3.492 1.067,0.436 2.264,0.714 3.404,0.882 C 1.129,-2.139 1.396,-0.146 0,0"
           style="fill:#1d1d1b;fill-opacity:1;fill-rule:nonzero;stroke:none"
           id="path2375" />
      </g>
      <g
         id="g2377"
         transform="translate(609.3018,228.3867)">
        <path
           d="m 0,0 c -2.124,-4.682 -1.622,-9.88 -0.749,-14.823 0.52,-2.937 1.135,-5.855 1.699,-8.784 0.737,-3.825 2.474,-7.449 2.722,-11.372 l 1.38,1.398 c -4.265,-0.025 -9.227,-1.183 -11.49,-5.115 -0.877,-1.526 1.579,-2.88 2.61,-1.549 2.034,2.625 5.763,3.604 8.897,3.887 0.703,0.062 1.452,0.597 1.38,1.397 C 5.46,-24.016 -2.835,-11.913 1.475,-0.756 1.851,0.219 0.449,0.99 0,0"
           style="fill:#1d1d1b;fill-opacity:1;fill-rule:nonzero;stroke:none"
           id="path2379" />
      </g>
      <g
         id="g2381"
         transform="translate(531.6416,324.3516)">
        <path
           d="m 0,0 c 1.862,-5.19 2.146,-10.789 3.831,-16.03 1.56,-4.852 3.499,-9.676 5.207,-14.491 2.972,-8.376 7.168,-16.775 15.385,-21.019 1.693,-0.875 2.926,1.716 1.289,2.639 -8.323,4.695 -11.861,13.124 -14.906,21.751 -1.251,3.543 -2.291,7.196 -3.892,10.601 C 4.364,-11.123 3.74,-5.056 1.131,0.453 0.796,1.161 -0.267,0.743 0,0"
           style="fill:#1d1d1b;fill-opacity:1;fill-rule:nonzero;stroke:none"
           id="path2383" />
      </g>
      <g
         id="g2385"
         transform="translate(720.6543,271.8965)">
        <path
           d="m 0,0 c 7.123,-2.886 12.087,-8.554 16.219,-14.838 4.496,-6.837 4.329,-15.052 3.999,-22.974 -0.11,-2.624 3.686,-2.736 3.558,-0.139 -0.41,8.33 0.177,16.173 -4.261,23.526 C 15.203,-7.282 8.724,-1.1 0.734,1.588 -0.31,1.939 -1.066,0.432 0,0"
           style="fill:#1d1d1b;fill-opacity:1;fill-rule:nonzero;stroke:none"
           id="path2387" />
      </g>
      <g
         id="g2389"
         transform="translate(594.458,269.7988)">
        <path
           d="m 0,0 c 1.498,-3.787 2.842,-6.664 6.75,-8.412 5.275,-2.359 10.358,-4.92 16.25,-4.739 4.341,0.132 9.228,2.201 12.786,4.651 3.967,2.73 4.796,7.156 7.099,11.067 C 43.61,3.8 41.798,5.402 40.702,4.426 38.235,2.225 37.962,-0.406 36.338,-3.205 34.304,-6.709 29.411,-8.231 25.808,-9.363 20.534,-11.018 16.684,-8.921 11.849,-7.397 9.58,-6.684 7.438,-5.995 5.376,-4.765 4.03,-3.963 1.826,-0.553 1.012,0.539 0.626,1.056 -0.244,0.618 0,0"
           style="fill:#1d1d1b;fill-opacity:1;fill-rule:nonzero;stroke:none"
           id="path2391" />
      </g>
      <g
         id="g2393"
         transform="translate(610.6182,252.3008)">
        <path
           d="m 0,0 c 5.253,-2.946 11.341,-2.436 16.776,-0.186 1.17,0.485 0.371,2.179 -0.789,1.77 C 10.863,-0.223 5.816,-1.268 0.764,1.398 -0.145,1.878 -0.898,0.504 0,0"
           style="fill:#1d1d1b;fill-opacity:1;fill-rule:nonzero;stroke:none"
           id="path2395" />
      </g>
      <g
         id="g2397"
         transform="translate(648.8828,307.5957)">
        <path
           d="m 0,0 c 0.888,-2.798 0.248,-6.287 0.122,-9.195 -0.126,-2.913 0.401,-5.01 0.815,-7.814 0.418,-2.834 4.777,-1.997 4.36,0.826 -0.246,1.668 -1.021,3.152 -1.088,4.854 -0.047,1.18 -0.107,2.358 -0.171,3.538 C 3.873,-4.722 3.553,-1.673 2.093,1.082 1.437,2.319 -0.388,1.224 0,0"
           style="fill:#1d1d1b;fill-opacity:1;fill-rule:nonzero;stroke:none"
           id="path2399" />
      </g>
      <g
         id="g2401"
         transform="translate(532.3418,330.8896)">
        <path
           d="m 0,0 c -2.8,0.894 -4.978,-1.887 -5.603,-4.295 -0.583,-2.248 0.491,-4.541 2.546,-5.579 1.706,-0.862 3.795,-0.356 5.277,0.698 1.972,1.404 2.559,4.171 1.878,6.393 -1.679,5.468 -10.161,1.501 -7.319,-2.851 0.965,-1.476 2.566,-1.41 4.038,-0.686 1.267,0.623 2.505,1.96 2.046,3.499 -0.594,1.994 -2.301,2.158 -4.084,1.728 -1.628,-0.391 -2.252,-2.191 -2.36,-3.659 1.493,-0.092 2.985,-0.184 4.478,-0.275 0.027,0.388 0.047,0.777 0.09,1.165 0.292,2.643 -4.062,3.093 -4.587,0.545 -0.11,-0.537 -0.091,0.279 0.18,0.431 -2.453,-1.376 -0.235,-5.07 2.244,-4.225 1.292,0.44 2.356,1.816 2.163,3.249 -1.552,-0.019 -3.105,-0.036 -4.658,-0.055 0.06,-0.456 0.104,-0.913 0.132,-1.371 0.099,-1.225 1.592,-1.957 2.67,-1.725 1.304,0.281 1.841,1.451 1.724,2.67 0.038,-0.393 -0.725,-0.631 -0.149,-0.574 -0.591,0.321 -1.183,0.642 -1.774,0.963 0.535,1.131 0.514,1.493 -0.063,1.087 -0.216,-0.063 -0.437,-0.102 -0.663,-0.117 0.629,-0.191 1.257,-0.381 1.886,-0.572 0.119,-0.13 -0.105,-0.777 0.042,-0.361 -0.109,-0.309 0.267,0.112 0.102,0.018 0.237,0.134 0.351,0.211 0.609,-0.014 1.01,-0.887 -0.121,-2.552 -0.913,-3.078 -0.887,-0.59 -2.174,-0.265 -2.63,0.689 -0.96,2.013 1.082,3.876 2.733,4.536 C 0.788,-1.464 0.801,-0.255 0,0"
           style="fill:#1d1d1b;fill-opacity:1;fill-rule:nonzero;stroke:none"
           id="path2403" />
      </g>
      <g
         id="g2405"
         transform="translate(742.207,231.8311)">
        <path
           d="m 0,0 c 0.169,1.417 -0.96,2.238 -2.15,2.703 -1.036,0.404 -1.984,0.052 -2.904,-0.471 -1.905,-1.082 -2.25,-3.801 -1.27,-5.591 1.202,-2.197 3.73,-2.847 5.992,-2.019 1.827,0.669 3.373,2.171 3.607,4.175 C 3.47,0.453 2.921,2.313 1.494,3.304 0.705,3.852 -0.114,4.062 -1.071,4.024 -1.473,4.009 -1.891,3.867 -2.262,3.712 -2.524,3.602 -2.761,3.435 -3.006,3.291 -3.058,3.261 -3.527,2.916 -3.329,3.017 -5.624,1.849 -6.765,-0.67 -5.077,-2.867 c 1.689,-2.198 4.904,-1.85 6.535,0.112 0.224,0.27 0.394,0.605 0.538,0.923 C 2.783,-0.1 1.363,1.636 -0.425,1.579 -1.936,1.532 -3.131,0.762 -3.835,-0.556 -4.553,-1.9 -3.467,-3.798 -1.977,-3.939 -1.809,-3.955 -1.64,-3.972 -1.472,-3.987 0.257,-4.151 1.337,-2.511 0.78,-0.953 0.637,-0.735 0.494,-0.519 0.352,-0.301 0.409,-1.1 0.467,-1.897 0.525,-2.696 0.457,-3.021 0.285,-3.202 0.011,-3.241 -0.796,-2.104 -1.604,-0.968 -2.41,0.17 -2.6,-0.385 -2.477,-0.085 -2.198,0.146 -2.356,0.015 -2,0.187 -1.915,0.195 c -0.399,-0.037 0.291,-0.1 -0.086,0.025 0.052,-0.018 0.322,-0.245 0.19,-0.084 0.061,-0.074 0.312,-0.816 0.249,-0.443 0.047,-0.204 0.037,-0.403 -0.033,-0.598 -0.154,-0.255 -0.159,-0.277 -0.012,-0.066 -0.258,-0.351 0.204,0.124 0.262,0.166 0.191,0.136 0.499,0.311 0.717,0.506 0.107,0.095 0.534,0.334 0.007,0.047 0.514,0.279 -0.271,-0.009 0.037,0.036 0.422,0.063 -0.535,0.059 -0.124,-0.006 -0.673,0.106 0.164,-0.162 -0.384,0.188 0.096,-0.062 0.18,-0.14 0.262,-0.217 -0.455,0.426 -0.106,0.089 -0.005,-0.072 -0.33,0.527 -0.058,0.086 0.002,-0.087 0.116,-0.34 -0.052,0.504 0.011,-0.09 0.014,-0.135 -0.014,-0.594 0.034,0.018 -0.015,-0.185 -0.061,-0.365 -0.111,-0.541 0.146,0.512 0.022,0.095 -0.043,-0.029 -0.144,-0.274 0.228,0.226 -0.148,-0.19 -0.122,-0.135 -0.103,-0.109 -0.261,-0.213 -0.068,-0.046 -0.659,-0.318 -0.419,-0.228 -0.541,-0.206 -0.667,-0.191 -0.898,-0.119 -0.497,0.156 0.187,-0.146 -0.226,0.135 0.322,-0.219 -0.305,0.415 -0.093,0.073 -0.024,0.039 -0.226,0.555 -0.12,0.188 -0.029,0.113 -0.048,0.227 -0.06,0.344 -0.008,-0.21 -0.004,-0.204 0.011,0.021 0.039,0.49 -0.133,-0.267 0.058,0.192 -0.097,-0.235 0.154,0.169 0.255,0.256 0.426,0.364 -0.544,0.037 -0.051,0.04 0.235,0.019 0.468,0.034 0.703,0.046 0.233,-0.054 0.183,0.023 -0.151,0.231 C -1.929,-1.428 -0.144,-1.204 0,0"
           style="fill:#1d1d1b;fill-opacity:1;fill-rule:nonzero;stroke:none"
           id="path2407" />
      </g>
    </g>
  </g>
</svg>
